<?xml version="1.0" encoding="utf-8"?>
<svg xmlns="http://www.w3.org/2000/svg" viewBox="0 0 704.688 525.658">
  <defs>
    <style>
      .cls-1 {
        fill: #fbfbfb;
      }
    </style>
  </defs>
  <path id="line3" class="cls-1" d="M1366.62,788.751c-85.543,2.478-134.877-6.841-181.412-15.2-42.71-7.708-56.294-13.279-92.945-15.963-65.51-4.8-83.741,8.475-168.534,17.483-160.135,17.012-195.6-19.672-207.168-33.446-22.453-26.734-34.715-62.148-38.634-73.733-17.262-51-16.433-96.164-15.677-137.584a539.675,539.675,0,0,1,16.8-125.422c8.847-34.1,14.938-57.572,31.355-81.334,25.14-36.388,55.991-46.657,67.189-50.169,8.253-2.592,28.365-7.852,92.386,9.122C898.242,290,935.09,299.766,983.64,323.55c47.531,23.29,57.178,35.954,92.386,44.088,31.159,7.2,55.331,4.614,69.989,3.041,94.776-10.148,194.81-87.134,220.046-107.179Z" transform="translate(1366.62 789.158) rotate(180)"/>
</svg>
