<?xml version="1.0" encoding="utf-8"?>
<svg xmlns="http://www.w3.org/2000/svg" viewBox="0 0 1583.32 869.974">
  <defs>
    <style>
      .cls-1 {
        fill: #fbfbfb;
      }
    </style>
  </defs>
  <path id="line3" class="cls-1" d="M2245.252,1132.8c-192.2,4.1-303.048-11.322-407.6-25.161-95.963-12.756-126.483-21.978-208.833-26.419-147.19-7.938-188.152,14.027-378.668,28.935-359.8,28.155-439.481-32.558-465.472-55.354-50.447-44.245-78-102.857-86.8-122.029-38.785-84.4-36.923-159.154-35.225-227.7a674.482,674.482,0,0,1,37.741-207.576c19.877-56.435,33.564-95.283,70.45-134.609,56.486-60.222,125.8-77.218,150.964-83.03,18.543-4.29,63.732-13,207.575,15.1,63.506,12.4,146.3,28.57,255.381,67.934,106.794,38.546,128.47,59.5,207.575,72.966,70.01,11.914,124.319,7.636,157.254,5.032,212.947-16.795,437.708-144.208,494.407-177.383Z" transform="translate(-661.933 -263.5)"/>
</svg>
