<svg id="bc1f3139-0466-4655-9cee-0348334ffa8f" data-name="Layer 1"
	xmlns="http://www.w3.org/2000/svg"
	xmlns:xlink="http://www.w3.org/1999/xlink" width="977.47786" height="801.93613" viewBox="0 0 977.47786 801.93613">
	<defs>
		<linearGradient id="a7d70b19-b507-4394-a133-55f51a2376ed" x1="323.00662" y1="814.32902" x2="323.00662" y2="813.88035" gradientTransform="matrix(-1, 0, 0, 1, 651, 0)" gradientUnits="userSpaceOnUse">
			<stop offset="0" stop-color="gray" stop-opacity="0.25"/>
			<stop offset="0.53514" stop-color="gray" stop-opacity="0.12"/>
			<stop offset="1" stop-color="gray" stop-opacity="0.1"/>
		</linearGradient>
	</defs>
	<title>download</title>
	<path d="M736.91966,127.882v610.02a27.40545,27.40545,0,0,1-27.41,27.4h-247.66a27.40545,27.40545,0,0,1-27.41-27.4V127.882a27.40759,27.40759,0,0,1,27.41-27.41h37.06V105.232a22.57647,22.57647,0,0,0,22.57,22.57h125.95a22.57,22.57,0,0,0,22.57-22.57V100.472h39.51A27.40759,27.40759,0,0,1,736.91966,127.882Z" transform="translate(-95.51074 -66.78194)" fill="#212121"/>
	<path d="M774.23126,223.30777h2.45455a2.29166,2.29166,0,0,1,2.29166,2.29166v80.43684a2.29167,2.29167,0,0,1-2.29166,2.29167h-2.45455" transform="translate(-111.51074 -48.78194)" fill="none" stroke="#3f3d56" stroke-miterlimit="10"/>
	<path d="M429.12694,184.69093H427.3524a1.50327,1.50327,0,0,1-1.50327-1.50327V158.20489a1.50327,1.50327,0,0,1,1.50327-1.50327h1.77454" transform="translate(-111.51074 -48.78194)" fill="none" stroke="#3f3d56" stroke-miterlimit="10"/>
	<path d="M428.848,256.66345h-1.5147a1.69459,1.69459,0,0,1-1.69459-1.69459v-45.329a1.69459,1.69459,0,0,1,1.69459-1.6946h1.79366" transform="translate(-111.51074 -48.78194)" fill="none" stroke="#3f3d56" stroke-miterlimit="10"/>
	<path d="M428.848,322.84871h-1.49148a1.61261,1.61261,0,0,1-1.6126-1.6126V275.32217a1.6126,1.6126,0,0,1,1.6126-1.61259H428.848" transform="translate(-111.51074 -48.78194)" fill="none" stroke="#3f3d56" stroke-miterlimit="10"/>
	<rect x="317.6162" y="15.42306" width="345.10432" height="701.37379" rx="35.69395" fill="none" stroke="#3f3d56" stroke-miterlimit="10"/>
	<rect x="454.87844" y="39.36805" width="48.19213" height="9.78574" rx="2.54189" fill="#f2f2f2"/>
	<circle cx="515.90777" cy="44.26092" r="5.55051" fill="#f2f2f2"/>
	<rect x="456.87844" y="36.36805" width="48.19213" height="9.78574" rx="2.54189" fill="none" stroke="#3f3d56" stroke-miterlimit="10"/>
	<circle cx="517.90777" cy="41.26092" r="5.55051" fill="none" stroke="#3f3d56" stroke-miterlimit="10"/>
	<path d="M752.91966,109.882v610.02a27.40545,27.40545,0,0,1-27.41,27.4h-247.66a27.40545,27.40545,0,0,1-27.41-27.4V109.882a27.40759,27.40759,0,0,1,27.41-27.41h37.06V87.232a22.57647,22.57647,0,0,0,22.57,22.57h125.95a22.57,22.57,0,0,0,22.57-22.57V82.472h39.51A27.40759,27.40759,0,0,1,752.91966,109.882Z" transform="translate(-111.51074 -48.78194)" fill="none" stroke="#3f3d56" stroke-miterlimit="10"/>
	<rect x="347.57891" y="91.99008" width="31" height="4" fill="none" stroke="#3f3d56" stroke-miterlimit="10"/>
	<rect x="347.57891" y="98.99008" width="31" height="4" fill="none" stroke="#3f3d56" stroke-miterlimit="10"/>
	<rect x="347.57891" y="105.99008" width="31" height="4" fill="none" stroke="#3f3d56" stroke-miterlimit="10"/>
	<path d="M738.75456,150.772h-.91824l-.34477-.28784a7.62034,7.62034,0,0,0,1.77982-4.893,7.43383,7.43383,0,1,0-7.405,7.48343,7.6931,7.6931,0,0,0,4.87907-1.78434l.34424.2879v.92086l5.74018,5.75644,1.722-1.72693Zm-6.88823,0a5.18086,5.18086,0,1,1,5.16612-5.18086A5.15205,5.15205,0,0,1,731.86633,150.772Z" transform="translate(-111.51074 -48.78194)" fill="none" stroke="#3f3d56" stroke-miterlimit="10"/>
	<path d="M906.66523,217.77107a38.95007,38.95007,0,0,1,38.89611-36.91443c1.18377,0,2.35271.06174,3.50958.16513a51.74974,51.74974,0,0,1,89.45652-.04229c.976-.07331,1.95855-.12284,2.95327-.12284a38.95007,38.95007,0,0,1,38.89611,36.91443" transform="translate(-111.51074 -48.78194)" fill="#505050"/>
	<path d="M914.77767,214.77486a38.95008,38.95008,0,0,1,38.89611-36.91442c1.18377,0,2.35271.06173,3.50959.16513a51.74974,51.74974,0,0,1,89.45651-.0423c.976-.0733,1.95855-.12283,2.95328-.12283a38.95007,38.95007,0,0,1,38.8961,36.91442" transform="translate(-111.51074 -48.78194)" fill="none" stroke="#3f3d56" stroke-miterlimit="10"/>
	<path d="M802.66523,438.77107a38.95007,38.95007,0,0,1,38.89611-36.91443c1.18377,0,2.35271.06174,3.50958.16513a51.74974,51.74974,0,0,1,89.45652-.04229c.976-.07331,1.95855-.12284,2.95327-.12284a38.95007,38.95007,0,0,1,38.89611,36.91443" transform="translate(-111.51074 -48.78194)" fill="#333"/>
	<path d="M810.77767,435.77486a38.95008,38.95008,0,0,1,38.89611-36.91442c1.18377,0,2.35271.06173,3.50959.16513a51.74974,51.74974,0,0,1,89.45651-.0423c.976-.0733,1.95855-.12283,2.95328-.12283a38.95007,38.95007,0,0,1,38.8961,36.91442" transform="translate(-111.51074 -48.78194)" fill="none" stroke="#3f3d56" stroke-miterlimit="10"/>
	<path d="M151.66523,114.77107a38.95007,38.95007,0,0,1,38.89611-36.91443c1.18377,0,2.35271.06174,3.50958.16513a51.74974,51.74974,0,0,1,89.45652-.04229c.976-.07331,1.95855-.12284,2.95327-.12284a38.95007,38.95007,0,0,1,38.89611,36.91443" transform="translate(-111.51074 -48.78194)" fill="#333333"/>
	<path d="M159.77767,111.77486a38.95008,38.95008,0,0,1,38.89611-36.91442c1.18377,0,2.35271.06173,3.50959.16513a51.74974,51.74974,0,0,1,89.45651-.0423c.976-.0733,1.95855-.12283,2.95328-.12283a38.95007,38.95007,0,0,1,38.8961,36.91442" transform="translate(-111.51074 -48.78194)" fill="none" stroke="#3f3d56" stroke-miterlimit="10"/>
	<rect x="349.07891" y="194" width="238" height="132" rx="12.54724" fill="#f04157"/>
	<rect x="362.07891" y="169" width="238" height="132" rx="12.54724" fill="none" stroke="#3f3d56" stroke-miterlimit="10"/>
	<path d="M555.05822,313.30129l20.99113,21.6334a4.77133,4.77133,0,0,0,3.509,1.40985h.06266a4.77133,4.77133,0,0,0,3.509-1.40985l20.99113-21.6334a4.63225,4.63225,0,0,0,0-6.76729,5.18146,5.18146,0,0,0-7.08059,0l-12.438,13.002V286.01282a5.01782,5.01782,0,0,0-10.02561,0V319.536l-12.438-13.002a5.18144,5.18144,0,0,0-7.08059,0,4.63225,4.63225,0,0,0,0,6.76729Z" transform="translate(-111.51074 -48.78194)" fill="#fff"/>
	<rect x="486.58964" y="468.78194" width="238" height="132" rx="12.54724" transform="translate(1099.66855 1020.78194) rotate(-180)" fill="#f04157"/>
	<rect x="473.58964" y="443.78194" width="238" height="132" rx="12.54724" transform="translate(1073.66855 970.78194) rotate(-180)" fill="none" stroke="#3f3d56" stroke-miterlimit="10"/>
	<path d="M630.12107,539.3013a4.63225,4.63225,0,0,0,0-6.76729,5.18144,5.18144,0,0,0-7.08059,0l-12.438,13.002V512.01282a5.01782,5.01782,0,0,0-10.02561,0V545.536l-12.438-13.002a5.18146,5.18146,0,0,0-7.08059,0,4.63225,4.63225,0,0,0,0,6.76729l20.99113,21.6334a4.77131,4.77131,0,0,0,3.509,1.40985h.06266a4.77133,4.77133,0,0,0,3.509-1.40985l20.99113-21.6334Z" transform="translate(-111.51074 -48.78194)" fill="#fff"/>
	<path d="M328.41943,813.88035l-.00036.00132s-.31446.17476-.85173.44735Q328.00131,814.10425,328.41943,813.88035Z" transform="translate(-111.51074 -48.78194)" fill="url(#a7d70b19-b507-4394-a133-55f51a2376ed)"/>
	


	<g opacity="0.1">
		<path d="M219.04105,321.67135c-.00882-.05014-.0174-.10054-.02679-.15-.443-2.34276-1.11573-4.76718-.9653-7.09881a45.60409,45.60409,0,0,0,.9653,5.69207A3.38839,3.38839,0,0,1,219.04105,321.67135Z" transform="translate(-111.51074 -48.78194)"/>
		<path d="M237.2832,350.93339a9.1354,9.1354,0,0,0-.76759,3.57228,10.76385,10.76385,0,0,1,.76759-4.979c.8791-1.86884,2.94479-3.33837,4.95576-2.86811,2.6777.6262,3.82984,4.10859,6.45,4.94373,2.20879.704,4.62651-.86462,5.67973-2.92976s1.08138-4.48235,1.08688-6.80056q.00927-3.9179.01843-7.83577c.00675-2.83918.09055-5.91267,1.84279-8.14659,2.18029-2.77951,7.30319-3.99369,10.72227-3.88258a9.07894,9.07894,0,0,1,6.11682,2.46757c1.83466,1.55734,3.94735,2.70132,6.44446,2.29454a5.57021,5.57021,0,0,0,4.48867-3.88362c.26273-1.00923.19376-2.08595.49089-3.08563.72982-2.456,3.35188-3.73665,5.10939-5.601a10.23456,10.23456,0,0,0,2.63678-6.6074,10.65727,10.65727,0,0,1-2.63678,8.01414c-1.75751,1.86437-4.37957,3.145-5.10939,5.601-.29713.99968-.22816,2.0764-.49089,3.08563a5.57021,5.57021,0,0,1-4.48867,3.88362c-2.49711.40677-4.6098-.7372-6.44446-2.29454a9.079,9.079,0,0,0-6.11682-2.46758c-3.41908-.1111-8.542,1.10308-10.72227,3.88259-1.75224,2.23392-1.836,5.30741-1.84279,8.14659q-.00911,3.91785-.01843,7.83577c-.0055,2.31821-.03366,4.73538-1.08688,6.80056s-3.47094,3.63379-5.67973,2.92976c-2.62012-.83514-3.77226-4.31753-6.45-4.94374C240.228,347.595,238.1623,349.06455,237.2832,350.93339Z" transform="translate(-111.51074 -48.78194)"/>
		<path d="M211.59145,342.32619a12.12287,12.12287,0,0,0,2.65858,4.30247q5.16124,6.20041,10.32261,12.40086c4.34546,5.22043,8.943,11.262,8.60758,17.9314-.31345-6.11379-4.56962-11.67371-8.60758-16.52466q-5.16125-6.20041-10.32261-12.40087a12.12269,12.12269,0,0,1-2.65858-4.30247,11.94551,11.94551,0,0,1-.27281-3.42949A8.50743,8.50743,0,0,0,211.59145,342.32619Z" transform="translate(-111.51074 -48.78194)"/>
	</g>

	<path d="M208.37518,711.58507s3.464,17.01166,6.27743,13.72927" transform="translate(-111.51074 -48.78194)" opacity="0.1"/>
	<path d="M125.22035,694.43414a20.81252,20.81252,0,1,0,2.7716-39.91524l.52093,10.7122-5.06815-9.18045a20.734,20.734,0,0,0-10.68366,11.72261,20.40847,20.40847,0,0,0-1.19713,5.62986A20.80855,20.80855,0,0,0,125.22035,694.43414Z" transform="translate(-111.51074 -48.78194)" fill="#636363"/>
	<path d="M150.29769,818.67756c-1.78906-9.11027,5.96331-17.1868,13.62087-22.43651s16.605-10.40779,19.21775-19.31684c3.755-12.80387-7.43-24.52981-16.13564-34.64176a125.3,125.3,0,0,1-16.52359-24.55738c-1.81108-3.5325-3.47558-7.22528-3.95222-11.16626-.6864-5.67546,1.13694-11.32309,2.97391-16.73673q9.17923-27.05169,19.62842-53.65005" transform="translate(-111.51074 -48.78194)" fill="none" stroke="#3f3d56" stroke-miterlimit="10"/>
	<path d="M126.07747,691.6762a20.81252,20.81252,0,1,0,2.77159-39.91524l.52094,10.7122-5.06815-9.18045a20.734,20.734,0,0,0-10.68367,11.72261,20.40883,20.40883,0,0,0-1.19713,5.62986A20.80857,20.80857,0,0,0,126.07747,691.6762Z" transform="translate(-111.51074 -48.78194)" fill="none" stroke="#3f3d56" stroke-miterlimit="10"/>
	<path d="M147.75389,632.47266A20.78823,20.78823,0,0,1,162.73382,619.275l1.71362,10.18378,3.177-10.69566a20.81,20.81,0,1,1-19.87057,13.70952Z" transform="translate(-111.51074 -48.78194)" fill="#636363"/>
	<path d="M148.89672,628.7954a20.7882,20.7882,0,0,1,14.97993-13.19763l1.71361,10.18378,3.177-10.69567a20.81,20.81,0,1,1-19.87057,13.70952Z" transform="translate(-111.51074 -48.78194)" fill="none" stroke="#3f3d56" stroke-miterlimit="10"/>
	<path d="M163.34728,742.48885a20.81,20.81,0,0,0,18.419-37.02267l-2.44122,8.21926-1.731-10.30382a.3621.3621,0,0,0-.053-.0201,20.81113,20.81113,0,1,0-14.1938,39.12733Z" transform="translate(-111.51074 -48.78194)" fill="#636363"/>
	<path d="M164.33749,738.76417a20.81,20.81,0,0,0,18.419-37.02267l-2.44121,8.21926-1.73105-10.30382a.36183.36183,0,0,0-.053-.0201,20.81113,20.81113,0,1,0-14.1938,39.12733Z" transform="translate(-111.51074 -48.78194)" fill="none" stroke="#3f3d56" stroke-miterlimit="10"/>
	<path d="M141.68036,777.05148a20.80131,20.80131,0,1,0,4.01058-16.29737l9.27267,13.95654L142.29366,767.303A20.61637,20.61637,0,0,0,141.68036,777.05148Z" transform="translate(-111.51074 -48.78194)" fill="#636363"/>
	<path d="M142.53747,774.29354a20.80132,20.80132,0,1,0,4.01059-16.29737l9.27266,13.95655L143.15078,764.545A20.61651,20.61651,0,0,0,142.53747,774.29354Z" transform="translate(-111.51074 -48.78194)" fill="none" stroke="#3f3d56" stroke-miterlimit="10"/>
	<path d="M121.40226,831.01764s18.36546-7.19731,23.90035-11.13863,28.2507-8.64747,29.62377-2.32646,27.59987,31.43784,6.86536,31.60509-48.17778,3.40194-53.702.03692S121.40226,831.01764,121.40226,831.01764Z" transform="translate(-111.51074 -48.78194)" fill="#656380"/>
	<path d="M182.16177,846.95727c-20.73451.16729-48.17777,3.402-53.702.03693-4.207-2.56265-5.88345-11.75807-6.44438-16.00047-.38846.0167-.61311.02389-.61311.02389s1.16323,14.81188,6.68747,18.17692,32.9675.13036,53.702-.03693c5.98523-.04827,8.05264-2.17773,7.93912-5.33164C188.89938,845.73148,186.61666,846.92135,182.16177,846.95727Z" transform="translate(-111.51074 -48.78194)" opacity="0.2"/>

</svg>