<svg id="f2059cf3-5beb-4c16-b86e-a491cbb2d73f" data-name="Layer 1"
	xmlns="http://www.w3.org/2000/svg"
	xmlns:xlink="http://www.w3.org/1999/xlink" width="1096.46" height="805.97" viewBox="0 0 1096.46 805.97">
	<defs>
		<linearGradient id="fe3366dc-1c26-4135-9415-0b0409d0ae5c" x1="699.46" y1="846.78" x2="699.46" y2="546.12" gradientUnits="userSpaceOnUse">
			<stop offset="0" stop-color="gray" stop-opacity="0.25"/>
			<stop offset="0.54" stop-color="gray" stop-opacity="0.12"/>
			<stop offset="1" stop-color="gray" stop-opacity="0.1"/>
		</linearGradient>
	</defs>
	<title>newt</title>
	<path d="M693.59,158.42c-64.72-2.25-126.36-23.14-185.22-46S391.21,64.23,328,52.12C287.41,44.33,240.94,43.23,208.2,65c-31.5,21-41.68,57.15-47.15,90.72-4.12,25.27-6.54,51.85,4.74,75.5,7.84,16.42,21.74,30.22,31.36,46,33.47,54.72,9.81,122.2-26.45,175.63-17,25.06-36.75,49-49.88,75.66s-19.2,57.25-7.71,84.46c11.38,27,38.51,47.24,67.9,61.5,59.69,28.94,130,37.23,198.61,41.92,151.83,10.39,304.46,5.89,456.69,1.39,56.34-1.67,112.92-3.36,168.34-12.07,30.78-4.84,62.55-12.52,84.89-31,28.37-23.53,35.4-63.38,16.39-92.88-31.88-49.49-120-61.79-142.31-114.9-12.26-29.23.33-61.8,18.16-88.91,38.24-58.17,102.33-109.19,105.7-175.68,2.32-45.66-28.49-91.39-76.13-113-49.93-22.65-119.18-19.8-156,17.69C817.4,145.55,750.74,160.4,693.59,158.42Z" transform="translate(-51.77 -47.02)" fill="#000" opacity="0.1"/>
	<g opacity="0.9">
		<rect x="708.33" y="248.78" width="8.86" height="73.02" rx="2.29" ry="2.29" fill="#1b1b1b"/>
		<rect x="413.89" y="191.58" width="4.97" height="24.04" rx="2.29" ry="2.29" fill="#1b1b1b"/>
		<rect x="413.71" y="235.59" width="5.6" height="41.84" rx="2.29" ry="2.29" fill="#1b1b1b"/>
		<rect x="413.8" y="292.07" width="5.33" height="42.2" rx="2.29" ry="2.29" fill="#1b1b1b"/>
		<rect x="416.71" y="112.14" width="296.4" height="602.39" rx="38.99" ry="38.99" fill="#1b1b1b"/>
		<rect x="536.31" y="130.12" width="41.39" height="8.4" rx="3.87" ry="3.87" fill="#e6e8ec"/>
		<circle cx="588.73" cy="134.33" r="4.77" fill="#e6e8ec"/>
	</g>
	<ellipse cx="238.04" cy="728.39" rx="199.97" ry="20.38" fill="#f04157" opacity="0.1"/>
	<ellipse cx="682.68" cy="796.42" rx="93.68" ry="9.55" fill="#f04157" opacity="0.1"/>

	<path d="M723,174.84H689.1v4.09a19.38,19.38,0,0,1-19.38,19.38H561.54a19.38,19.38,0,0,1-19.38-19.38v-4.09H510.32a23.53,23.53,0,0,0-23.53,23.54V722.31a23.53,23.53,0,0,0,23.53,23.54H723a23.54,23.54,0,0,0,23.54-23.54V198.38A23.54,23.54,0,0,0,723,174.84Z" transform="translate(-51.77 -47.02)" fill="#000"/>
	<path d="M867.49,132.73s-84.2-5.08-74.27,53.92c0,0-2,10.43,7.48,15.16,0,0,.15-4.37,8.63-2.89a38.44,38.44,0,0,0,9.15.44,19,19,0,0,0,11.19-4.61h0s23.66-9.78,32.87-48.46c0,0,6.81-8.44,6.54-10.61l-14.21,6.07s4.85,10.25,1,18.77c0,0-.46-18.4-3.19-18-.56.08-7.39,3.55-7.39,3.55s8.36,17.85,2,30.83c0,0,2.39-22-4.66-29.54l-10,5.84s9.76,18.44,3.15,33.49c0,0,1.69-23.08-5.25-32.07l-9.06,7.07s9.17,18.17,3.58,30.65c0,0-.74-26.86-5.55-28.89,0,0-7.93,7-9.14,9.86,0,0,6.28,13.2,2.39,20.16,0,0-2.39-17.9-4.35-18,0,0-7.9,11.86-8.72,20,0,0,.34-12.09,6.8-21.12,0,0-7.63,1.31-12.09,6.26,0,0,1.23-8.38,14-9.12,0,0,6.53-9,8.28-9.54,0,0-12.75-1.07-20.48,2.36,0,0,6.8-7.91,22.82-4.31l8.94-7.31s-16.78-2.29-23.9.24c0,0,8.2-7,26.32-1.9l9.74-5.82s-14.31-3.09-22.84-2c0,0,9-4.85,25.69.41l7-3.13s-10.49-2.06-13.56-2.39-3.23-1.17-3.23-1.17A36.35,36.35,0,0,1,853,139.19S867.74,133.66,867.49,132.73Z" transform="translate(-51.77 -47.02)" fill="#f04157"/>
	<path d="M781.13,106.49s-38-2.29-33.56,24.37c0,0-.89,4.71,3.38,6.85,0,0,.07-2,3.9-1.31a17.51,17.51,0,0,0,4.13.2,8.62,8.62,0,0,0,5.06-2.08h0s10.69-4.42,14.85-21.9c0,0,3.08-3.81,3-4.79l-6.42,2.74s2.19,4.63.46,8.48c0,0-.2-8.31-1.44-8.12-.25,0-3.33,1.61-3.33,1.61s3.77,8.06.92,13.93c0,0,1.08-9.94-2.1-13.35l-4.52,2.64s4.41,8.33,1.42,15.13c0,0,.77-10.43-2.37-14.49l-4.1,3.2s4.15,8.21,1.62,13.85c0,0-.33-12.14-2.5-13.06,0,0-3.59,3.16-4.13,4.46,0,0,2.83,6,1.07,9.11,0,0-1.08-8.09-2-8.13,0,0-3.57,5.36-3.94,9a19.46,19.46,0,0,1,3.07-9.54,10.71,10.71,0,0,0-5.46,2.83s.55-3.79,6.34-4.12c0,0,2.95-4.07,3.74-4.32,0,0-5.76-.48-9.25,1.07,0,0,3.07-3.57,10.31-2l4-3.3s-7.58-1-10.8.11c0,0,3.71-3.16,11.89-.86l4.4-2.63s-6.46-1.39-10.31-.89c0,0,4.06-2.19,11.6.18l3.15-1.41s-4.73-.93-6.12-1.08-1.46-.53-1.46-.53a16.36,16.36,0,0,1,8.89,1S781.24,106.91,781.13,106.49Z" transform="translate(-51.77 -47.02)" fill="#f04157"/>
	<ellipse cx="40.21" cy="678.57" rx="40.21" ry="6.8" fill="#48131a"/>
	<path d="M108.6,714.46a11.63,11.63,0,0,0,3.84-5.78c.49-2.3-.49-5-2.68-5.89-2.46-.95-5.09.76-7.08,2.48s-4.28,3.69-6.89,3.32A10.47,10.47,0,0,0,99,698.78a4,4,0,0,0-.9-2c-1.36-1.46-3.84-.83-5.48.32-5.2,3.66-6.65,10.72-6.67,17.08-.53-2.3-.09-4.69-.1-7s-.66-5-2.64-6.22a8,8,0,0,0-4-.95c-2.34-.08-4.94.15-6.54,1.86-2,2.12-1.47,5.69.26,8s4.35,3.8,6.76,5.42a14.92,14.92,0,0,1,4.84,4.61,4.41,4.41,0,0,1,.36.82H99.54A40.77,40.77,0,0,0,108.6,714.46Z" transform="translate(-51.77 -47.02)" fill="#48131a"/>

	
	<rect x="584.53" y="487.87" width="78.03" height="78.03" fill="#1b1b1b" opacity="0.3"/>
	<rect x="469.53" y="384.87" width="78.03" height="78.03" fill="#1b1b1b" opacity="0.3"/>
	<rect x="477.03" y="589.11" width="78.03" height="78.03" fill="#1b1b1b" opacity="0.3"/>
	<rect x="459.62" y="193.28" width="78.03" height="78.03" fill="#fff"/>
	<path d="M565.55,265.79l-2.77,2.76a9.77,9.77,0,0,1,0,13.83l2.77,2.78a13.7,13.7,0,0,0,0-19.37Z" transform="translate(-51.77 -47.02)" fill="#f04157"/>
	<path d="M571.09,260.46l-2.73,2.73a17.38,17.38,0,0,1,0,24.56l2.73,2.73a21.22,21.22,0,0,0,0-30Zm-13,10.22v-12.5h-3.85l-11.52,9.6H527.36l-3.84,1.92v13.45l3.84,1.92L537,300.44h5.76l-3.6-15.37h3.6l11.52,7.69h3.85v-12.5a4.91,4.91,0,0,0,0-9.58Z" transform="translate(-51.77 -47.02)" fill="#f04157"/>
	<rect x="656.92" y="522.77" width="78.03" height="78.03" transform="translate(-248.8 565.21) rotate(-42.14)" fill="#fff"/>
	<path d="M673.34,551.14,679,546,710,580.17l-5.7,5.16Zm13.37,32,5.7-5.15,9,10-5.7,5.15Zm11.94-21.16,5.7-5.16,14.17,15.67-5.69,5.15Zm.81-16.28,5.7-5.16,21.91,24.21-5.7,5.16Z" transform="translate(-51.77 -47.02)" fill="#f04157"/>
	<rect x="583.24" y="287.31" width="78.03" height="78.03" fill="#fff"/>
	<path d="M688.84,364l-10.47,16a5.7,5.7,0,0,1,1.3,3.64,5.77,5.77,0,0,1-11.53,0,6.36,6.36,0,0,1,.1-1.07l-6.92-4a5.79,5.79,0,0,1-6.83.86l-7.36,6.89v6.87a5.14,5.14,0,0,0,5.13,5.13H695.8a5.15,5.15,0,0,0,5.13-5.13V367.67l-7-4.67a5.7,5.7,0,0,1-3.53,1.22,5.87,5.87,0,0,1-1.52-.21Z" transform="translate(-51.77 -47.02)" fill="#f04157"/>
	<path d="M657.33,368.66a5.76,5.76,0,0,1,5.77,5.76c0,.25,0,.51-.05.75l7.22,4a5.67,5.67,0,0,1,3.65-1.3,5.54,5.54,0,0,1,1.24.14l10.5-16.26a5.76,5.76,0,1,1,10.46-3.34,6,6,0,0,1-.16,1.36l5,3.31v-9.62a5.14,5.14,0,0,0-5.13-5.12H652.26a5.13,5.13,0,0,0-5.13,5.12V381l4.8-4.6a5.82,5.82,0,0,1-.36-2A5.76,5.76,0,0,1,657.33,368.66Z" transform="translate(-51.77 -47.02)" fill="#f04157"/>
	<rect x="484.6" y="374.31" width="78.03" height="78.03" fill="#fff"/>
	<path d="M598.93,435.49l-48,26a1,1,0,0,0,.07,1.79l8.19,3.09a2,2,0,0,1,1.08,1l6.36,13.1c.12.58,1.19.74,1.2.15l-1-10.83a3.85,3.85,0,0,1,.88-2.19l24.88-24.38a.62.62,0,0,1,.55-.16.57.57,0,0,1,.31.91L572,470.19a4.79,4.79,0,0,0-.84,2.16l-1.28,9.35c.1.82.74,1.13,1.26.4l4.62-5.43a1,1,0,0,1,1.36-.22l11.91,8.68a1,1,0,0,0,1.51-.59l9.77-48a1,1,0,0,0-1.4-1.08Z" transform="translate(-51.77 -47.02)" fill="#f04157"/>



	

	<path d="M999.31,543.14a3.3,3.3,0,0,0-2.54,1.28,7.31,7.31,0,0,0-1.06,3.4,29.81,29.81,0,0,1-4,10.86" transform="translate(-51.77 -47.02)" opacity="0.1"/>
	<path d="M1002.81,545.88a3.88,3.88,0,0,0-3.32,2,11.1,11.1,0,0,0-.84,3.39,18.42,18.42,0,0,1-3.33,7.11" transform="translate(-51.77 -47.02)" opacity="0.1"/>
	



	
	<rect x="199.03" y="612.17" width="78.03" height="78.03" fill="#fff"/>
	<path d="M312.87,695.59c0,8.9-4.17,14.5-10.76,14.5-3.37,0-5.94-1.8-6.39-4.47h-.48a7,7,0,0,1-6.93,4.31c-5.86,0-9.77-4.7-9.77-11.69,0-6.71,3.94-11.38,9.69-11.38a7,7,0,0,1,6.57,3.93h.48v-3.34h4.79V703a2.78,2.78,0,0,0,3,3.1c3.32,0,5.44-4,5.44-10.3,0-10-7.5-16.69-18.57-16.69s-18.75,8-18.75,19.28c0,11.55,7.72,18.93,19.74,18.93a36.21,36.21,0,0,0,6.53-.56,1.9,1.9,0,0,1,.8,3.71,33.24,33.24,0,0,1-7.52.82c-14.61,0-24-9-24-23,0-13.68,9.55-23.07,23.46-23.07C303.6,675.14,312.87,683.49,312.87,695.59Zm-29.15,2.76c0,4.44,2.08,7.13,5.48,7.13,3.58,0,5.84-2.76,5.84-7.13s-2.26-7.07-5.78-7.07S283.72,693.9,283.72,698.35Z" transform="translate(-51.77 -47.02)" fill="#f04157"/>

	<path d="M770.23,840.52c-.81-3.43-1.3-6.43-1.3-6.43a13.32,13.32,0,0,0-1.49-6.53v-.94h0v-6.9a22.81,22.81,0,0,1,1.74-3.61c1.24-2.16,0-10.1,0-10.1s-4.6-11.19-3.49-18.29-9.44-31.53-9.44-31.53a31.15,31.15,0,0,1,1-7,5.05,5.05,0,0,0,.13-1.46,1.09,1.09,0,0,0,0-.18v.06c-.16-4.68-3.86-13.46-3.86-13.46l.5-16.72s2.36-9.87-1.49-23.11c-1.35-4.62-2.21-8.31-2.76-11.17-.06-.32-.12-.63-.17-.93,7.93-1.21,14-2.22,14-2.22s-4.6-19.25-7.71-22.62-5.59-13.95-5.59-13.95-1.62-13.6,1-17.57,3-10.83,3-10.83,6-4.33,6.71-6.26a31.7,31.7,0,0,0,2-8.54c0-2.29-.75-4.33-.5-5.54s-1.74-5.77-.74-7.94a5.81,5.81,0,0,0,.39-2.09.13.13,0,0,0,0-.06v0a29.73,29.73,0,0,0-.53-5.65,16,16,0,0,0-5.9-3.16l-.13-.51-.34-1.35a4.56,4.56,0,0,0-.59-.35v-.5l0-2,.93-4.4c1.84-7.63-8.36-8.77-8.36-8.77a5.38,5.38,0,0,0-2.89-2.54c-2-.72-.34,11.5.62,12.28.72.58,3,4.42,4,6.3h0l.18.31a4.06,4.06,0,0,0-.47.49l.39,2.65.06.41a10.89,10.89,0,0,0-1.63,2.77s1.87,2.05,1.49,4.34a13.6,13.6,0,0,0,.62,5.29c-.11-.13-1.42-1.55-2.73-1.2s-5,1.44-5,1.44-2.74.48-2.49,1.08-1.86,3.25-1.86,3.25l-7.35-7c-.08-.21-.15-.42-.22-.63a16.8,16.8,0,0,1-.63-3,16.33,16.33,0,0,0,2.34-.75,5.07,5.07,0,0,0,2-1.3,7.94,7.94,0,0,0,1.18-3.17c.58-2.14,1.83-4.05,2.73-6.08A19.78,19.78,0,0,0,739,562a7.22,7.22,0,0,0-1.12-3.2c-1.2-1.65-3.38-2.32-5-3.64s-2.6-3.32-4.45-4.31a8.77,8.77,0,0,0-5.58-.48,29.82,29.82,0,0,0-10.41,3.78c-1.08.64-2.25,1.37-3.49,1.15a4.71,4.71,0,0,1-2.51-1.84.49.49,0,0,1,0-.11l-.09-.09a13.17,13.17,0,0,0-1.14,5.5c0,.29,0,.58,0,.88,0,.1,0,.2,0,.3a2.26,2.26,0,0,1,0,.26h0a1.76,1.76,0,0,1-.06.39,2.83,2.83,0,0,1-.68,1,4.43,4.43,0,0,0-.6.82c0-.1.06-.2.1-.3a4.34,4.34,0,0,0-.77,2.31,2.3,2.3,0,0,0,.56,1.66,8,8,0,0,0,1.19,1,14,14,0,0,0-.21,2.44,14.22,14.22,0,0,0,6.92,12.13l.25.63a17.49,17.49,0,0,1,1.33,8c0,.2,0,.39-.09.59l-.26.3h0s-12.14.12-15-2.47-7.21,6.32-7.21,6.32-4.35.85-5.22,0-6-.12-6-.12a11,11,0,0,0-7.58-2.76,22.27,22.27,0,0,0-5.57-3.1h0l-.14-.05h0a6.22,6.22,0,0,0-2.74-.34s-6-4.94-7.7-7.58-10-12.47-10.07-12.52l0-.47-.1-1.43a5.58,5.58,0,0,1-.74.07c0-.15-.1-.31-.17-.5a27,27,0,0,0-1.76-4s0-1.8.53-2.25-.22-7.07-.22-7.07-5.38-12.57-10.19-3.19c0,0-9.11,6.07-1.47,13.15,0,0,3,1.47,3.48,2.64.29.76,1.32,2.89,2,4.3l.31.63-.09.07.12,1.18,0,.46c-1.44.81-2.41,1.62-2.18,2.24a13.16,13.16,0,0,1,.87,3.25s10.57,13.23,11.94,18.89c0,0,28.34,16.84,37.66,18.05l-1.61,8.42a66.59,66.59,0,0,0-.37,6.86c.12,1.8-1.12,10-1.12,10s-1.62,12-3,13.71-1.12,8.91-1.12,8.91a60.09,60.09,0,0,1-1.86,10.22c-1.37,4.58-.37,10.23-.37,10.23s-4.73,10.83,6.59,3.49c0,0,5.55-.34,12-.56,0,.21,0,.42,0,.64,0,.82,0,1.71,0,2.65-.08,6.2-.12,14.75.16,21.22.5,11.43,4,34,4,34v11.36a15.89,15.89,0,0,0-.32,3.25,21.06,21.06,0,0,0,3.06,11.38l.87,7.58s2,5,2.08,8a3.93,3.93,0,0,1-.09.72,5.38,5.38,0,0,0-.1,1.16c-.11,3.44,2,11.68,2,11.68s.13,8.3,1.37,8.78c1.06.41-1.42,4.79-2.16,6a2,2,0,0,1-.05-.24c-.09.16-.15.25-.15.25a5.83,5.83,0,0,0-.39,2.1,3,3,0,0,0,1.38,2.92c2.36,1.45,3.63,2.65,1.63,3.13a19.86,19.86,0,0,0-2.19.46c0-.09-.08-.19-.11-.28A1.34,1.34,0,0,0,705,824a6.15,6.15,0,0,0,.75,2.81,30,30,0,0,0,3.36,6.14l1-.11a4.72,4.72,0,0,1-.56,1,3.87,3.87,0,0,1-1.4,1.24,4.48,4.48,0,0,1-1.7.59,4.74,4.74,0,0,0-3.52,1.71c-1.24,1.6-2,3.79.43,5.71l8.89,3.06s15.29,2,14.48-1.44-1.3-6.43-1.3-6.43a13.57,13.57,0,0,0-1.25-6.09,6,6,0,0,0-.54-.9l.54-.06s1.12-7.58,2.61-9c.35-.33.43-.59.34-.79.16-.41-.23-.65-.73-.79l-.11.3a7.5,7.5,0,0,0-1.48-.16s-.5-4,1.11-5.42a1.53,1.53,0,0,0,.32-1.18,6.8,6.8,0,0,0-.17-1.62l-.06.1a57.75,57.75,0,0,0-3.57-9.33s-.12-3.61.87-5.06-.12-19.61-.12-19.61.37-8.78-.75-12.87,1.37-8.91,1.37-8.91l0-.26,0-.06s-.06-.54-.15-1.39l0,.09c-.25-2.33-.72-6.54-1.07-8.48-.5-2.77.12-16,.12-16l2.24-5.65,4,9.74,4.22,13a11.05,11.05,0,0,1,2.15,5.52c0,.14,0,.28,0,.41a6.53,6.53,0,0,0,0,.87,7.76,7.76,0,0,0,1.29,4.63s1.12,6.14,2.86,7.7,1.74,4.57,1.74,4.57,2.11,8.91,3.11,10.47c.84,1.32.88,4.94.87,6h0v.33s.29,3.18.28,5.86c0,.32,0,.65,0,1v-.07a9.32,9.32,0,0,1-.26,2.16l0,.13c0-.15,0-.31,0-.45a22.26,22.26,0,0,0-.64,5.55c-.06,3.2.43,7,2.37,9.21,3.36,3.85,5.47,3.37,5.47,3.37s-1.62,4.81-3.61,5.78a1.2,1.2,0,0,0-.21.13c0-.09,0-.19-.05-.28a2.35,2.35,0,0,0-.58,1.8,12.88,12.88,0,0,0,2.46,7.13,3.94,3.94,0,0,0,1.68,1l-.31.19a7,7,0,0,1-.69.33,3.26,3.26,0,0,1-1,.26,4.74,4.74,0,0,0-3.52,1.71c-1.24,1.6-2,3.79.43,5.71l8.89,3.06S771,844,770.23,840.52Z" transform="translate(-51.77 -47.02)" fill="url(#fe3366dc-1c26-4135-9415-0b0409d0ae5c)"/>
	<path d="M711.83,846.2l-8.61-3.06c-2.37-1.92-1.61-4.11-.41-5.71a4.53,4.53,0,0,1,3.4-1.71,4.21,4.21,0,0,0,1.65-.59,3.9,3.9,0,0,0,1.36-1.24,6.33,6.33,0,0,0,1-3.33s9.45-2.76,12,0a7.06,7.06,0,0,1,1.15,1.68,14,14,0,0,1,1.2,6.09s.48,3,1.26,6.43S711.83,846.2,711.83,846.2Z" transform="translate(-51.77 -47.02)" fill="#2d293d"/>
	<path d="M753.94,842l-8.6-3.06c-2.38-1.92-1.62-4.11-.42-5.7a4.52,4.52,0,0,1,3.41-1.72,3.11,3.11,0,0,0,1-.26,5.06,5.06,0,0,0,.66-.33c2.41-1.32,2.35-4.57,2.35-4.57s9.44-2.77,12,0a6.69,6.69,0,0,1,.9,1.23,13.74,13.74,0,0,1,1.45,6.54s.48,3,1.26,6.43S753.94,842,753.94,842Z" transform="translate(-51.77 -47.02)" fill="#2d293d"/>
	<path d="M722.23,830.56a7.06,7.06,0,0,1,1.15,1.68h0l-14.16,1.64a6.33,6.33,0,0,0,1-3.33S719.65,827.8,722.23,830.56Z" transform="translate(-51.77 -47.02)" opacity="0.1"/>
	<path d="M765.25,827.55v2.65c-2.2,3.63-12.85,2.84-15.94,1a5.06,5.06,0,0,0,.66-.33c2.41-1.32,2.35-4.57,2.35-4.57s9.44-2.77,12,0A6.69,6.69,0,0,1,765.25,827.55Z" transform="translate(-51.77 -47.02)" opacity="0.1"/>
	<path d="M766.94,816.12a23.62,23.62,0,0,0-1.69,3.61v9.51c-2.4,4-14.92,2.65-16.6.48s-3.49-7.82-1.57-8.78,3.49-5.78,3.49-5.78-2,.48-5.29-3.37S743,799.4,743.6,797.35s0-8.9,0-8.9.12-4.81-.84-6.38-3-10.47-3-10.47,0-3-1.68-4.57-2.77-7.7-2.77-7.7a7.89,7.89,0,0,1-1.2-5.17c.36-3-2.05-6.26-2.05-6.26l-4.09-13-3.85-9.75-2.16,5.65s-.61,13.24-.12,16,1.2,10.1,1.2,10.1-2.41,4.82-1.32,8.91.72,12.87.72,12.87,1.08,18.17.12,19.62-.84,5-.84,5,4.93,10.59,3.36,12-1.08,5.42-1.08,5.42,3.37,0,1.93,1.44-2.53,9-2.53,9L708.83,833a30.8,30.8,0,0,1-3.26-6.14c-1.92-4.45.36-4,2.3-4.45s.71-1.68-1.58-3.13-1-4.69-1-4.69,3.49-5.9,2.29-6.38-1.33-8.78-1.33-8.78-2.4-9.87-1.8-12.51-1.93-9-1.93-9l-.84-7.58A20.84,20.84,0,0,1,699.08,756V744.29s-3.37-22.62-3.86-34c-.3-7.32-.22-17.31-.12-23.55.06-3.49.12-5.81.12-5.81l52-5.41a43.08,43.08,0,0,0,.95,7.72c.53,2.85,1.36,6.55,2.66,11.17,3.73,13.23,1.45,23.1,1.45,23.1l-.48,16.72s4.57,11.19,3.61,15a31.76,31.76,0,0,0-1,7s10.23,24.43,9.15,31.53S766.94,806,766.94,806,768.14,814,766.94,816.12Z" transform="translate(-51.77 -47.02)" fill="#464353"/>
	<path d="M737.22,753.44,753,751.33S744.08,760.47,737.22,753.44Z" transform="translate(-51.77 -47.02)" opacity="0.05"/>
	<path d="M750.75,735.87s.55,5.59-2.88,7.7C747.87,743.57,754,742.61,750.75,735.87Z" transform="translate(-51.77 -47.02)" opacity="0.1"/>
	<path d="M749.78,718.06s-13.22,10.89-18,10S749.78,718.06,749.78,718.06Z" transform="translate(-51.77 -47.02)" opacity="0.1"/>
	<path d="M717.6,758.55s-10,2.29-10.34,6.32S717.6,758.55,717.6,758.55Z" transform="translate(-51.77 -47.02)" opacity="0.1"/>
	<path d="M719.81,808.72s-14.19,2.65-10.16,4.46a68.8,68.8,0,0,0,10.65,3.24S724.87,816.66,719.81,808.72Z" transform="translate(-51.77 -47.02)" opacity="0.05"/>
	<g opacity="0.05">
		<path d="M706.78,816a2.81,2.81,0,0,1-1.3-2.06l-.14.26s-1.33,3.24,1,4.69c.26.16.51.33.74.49.42-.08.88-.14,1.31-.25C710.29,818.69,709.07,817.48,706.78,816Z" transform="translate(-51.77 -47.02)"/>
		<path d="M725.07,815.08c.39-.36.37-1.29.14-2.48a6.71,6.71,0,0,0-.81,3.49A2.67,2.67,0,0,1,725.07,815.08Z" transform="translate(-51.77 -47.02)"/>
		<path d="M722.88,755.22a16.56,16.56,0,0,0-1,4.42,17.48,17.48,0,0,1,1.1-3S723,756.06,722.88,755.22Z" transform="translate(-51.77 -47.02)"/>
		<path d="M755.39,748.9a5.72,5.72,0,0,0,.13-1.32c-.18.9-.3,1.74-.39,2.47C755.21,749.67,755.29,749.29,755.39,748.9Z" transform="translate(-51.77 -47.02)"/>
		<path d="M722.54,798a7.57,7.57,0,0,0,.36-2.67,8.81,8.81,0,0,0-.69,3.37A3.24,3.24,0,0,1,722.54,798Z" transform="translate(-51.77 -47.02)"/>
		<path d="M725.52,820.68a48.12,48.12,0,0,0-1.65,7.39l-14.55,1.69a30.14,30.14,0,0,1-3.26-6.14,10.72,10.72,0,0,1-.41-1.06c-.87.4-1.22,1.3-.07,4a29.79,29.79,0,0,0,3.26,6.13L723.38,831s1.09-7.58,2.53-9C726.62,821.23,726.17,820.87,725.52,820.68Z" transform="translate(-51.77 -47.02)"/>
		<path d="M706.3,799.07s.12,8.31,1.32,8.79h0c.61-1.37,1-2.67.47-2.89-1.2-.48-1.32-8.78-1.32-8.78s-2.41-9.87-1.8-12.52-1.93-9-1.93-9l-.84-7.58a20.88,20.88,0,0,1-2.65-14.32V741.08s-3.37-22.62-3.85-34.05c-.31-7.32-.22-17.31-.12-23.55,0-1.12,0-2.12,0-3l-.41,0s-.06,2.31-.12,5.81c-.1,6.23-.19,16.23.12,23.55.48,11.43,3.85,34.05,3.85,34.05v11.67A20.81,20.81,0,0,0,701.73,770l.84,7.58s2.53,6.37,1.92,9S706.3,799.07,706.3,799.07Z" transform="translate(-51.77 -47.02)"/>
		<path d="M749.13,826.51a14,14,0,0,1-2.3-5.72c-1.49,1.34.22,6.55,1.82,8.61s14.2,3.49,16.61-.49v-2.29C762,829.85,750.73,828.56,749.13,826.51Z" transform="translate(-51.77 -47.02)"/>
		<path d="M767.42,812.91a24.05,24.05,0,0,0-1.68,3.61v1.69c.27-.62.66-1.44,1.2-2.41a7.29,7.29,0,0,0,.53-3Z" transform="translate(-51.77 -47.02)"/>
		<path d="M749.87,814.81a23.17,23.17,0,0,0,1.19-2.86s-2,.48-5.3-3.37c-2.36-2.8-2.49-8.09-2.16-11.55-.6,2.05-1.57,10.59,1.68,14.44C747.41,814,749,814.65,749.87,814.81Z" transform="translate(-51.77 -47.02)"/>
		<path d="M743.6,788.13a66.12,66.12,0,0,1,.24,7.13c.08-.47.17-.85.24-1.12.61-2,0-8.9,0-8.9s.12-4.82-.84-6.38-3-10.47-3-10.47,0-3-1.68-4.57-2.77-7.7-2.77-7.7a7.89,7.89,0,0,1-1.21-5.17c.37-3-2-6.26-2-6.26l-4.09-13L724.59,722l-2.17,5.65s0,.71-.07,1.83l1.76-4.59,3.85,9.74,4.09,13s2.4,3.25,2,6.25A7.91,7.91,0,0,0,735.3,759s1.08,6.13,2.76,7.7,1.69,4.57,1.69,4.57,2,8.9,3,10.47S743.6,788.13,743.6,788.13Z" transform="translate(-51.77 -47.02)"/>
	</g>
	<path d="M753.7,566.75l-.9,4.4.05,2,0,1.44-5,.52-.56-1h0c-1-1.88-3.2-5.71-3.9-6.3-.93-.78-2.58-13-.6-12.27a5.24,5.24,0,0,1,2.8,2.53S755.48,559.11,753.7,566.75Z" transform="translate(-51.77 -47.02)" fill="#ffcdd3"/>
	<path d="M752.89,574.54l-5,.52-.56-1h0a4.42,4.42,0,0,1,5.54-.91Z" transform="translate(-51.77 -47.02)" opacity="0.1"/>
	<path d="M754.15,576.92l-6.61,1.54-.14-1-.38-2.65a4.55,4.55,0,0,1,6.41-.88l.33,1.35Z" transform="translate(-51.77 -47.02)" fill="#dce6f2"/>
	<path d="M646.91,567.23l-7.06,3.8-.64-1.34c-.68-1.41-1.68-3.53-2-4.29-.42-1.17-3.37-2.65-3.37-2.65-7.4-7.07,1.41-13.14,1.41-13.14,4.67-9.39,9.87,3.18,9.87,3.18s.72,6.63.21,7.07-.51,2.26-.51,2.26a27.49,27.49,0,0,1,1.71,4C646.8,566.82,646.91,567.23,646.91,567.23Z" transform="translate(-51.77 -47.02)" fill="#ffcdd3"/>
	<path d="M646.91,567.23l-7.06,3.8-.64-1.34c1-.83,4.53-3.7,5.69-3.57a8.28,8.28,0,0,0,1.68,0C646.8,566.82,646.91,567.23,646.91,567.23Z" transform="translate(-51.77 -47.02)" opacity="0.1"/>
	<path d="M647.63,569.37l-7.94,3.91-.16-1.71-.11-1.17s4.6-3.95,6-3.8a7.38,7.38,0,0,0,2.08,0l.09,1.43Z" transform="translate(-51.77 -47.02)" fill="#dce6f2"/>
	<path d="M734.45,595.93s-34.63,3.91-28.16,1.81c4.51-1.47,6.3-4.33,6.68-7.51a18.29,18.29,0,0,0-1.29-8,34.77,34.77,0,0,0-3.1-6.26s26.47-14.56,21.18-1.32a20.76,20.76,0,0,0-1.5,6.27,17.68,17.68,0,0,0,.67,6.34A18.91,18.91,0,0,0,734.45,595.93Z" transform="translate(-51.77 -47.02)" fill="#ffcdd3"/>
	<path d="M729.76,574.64a20.76,20.76,0,0,0-1.5,6.27c-2.5,2.09-5.23,2-8.74,2-2.7,0-5.69.66-7.84-.64a34.77,34.77,0,0,0-3.1-6.26S735.05,561.4,729.76,574.64Z" transform="translate(-51.77 -47.02)" opacity="0.1"/>
	<circle cx="667.28" cy="522.45" r="14.32" fill="#ffcdd3"/>
	<path d="M734.45,595.93s-34.63,3.91-28.16,1.81c4.51-1.47,6.3-4.33,6.68-7.51,1.72-1.87,5.18-3.22,7.41-3.93a10.33,10.33,0,0,1,6.27-.1,8.36,8.36,0,0,1,2.28,1A18.91,18.91,0,0,0,734.45,595.93Z" transform="translate(-51.77 -47.02)" opacity="0.1"/>
	<path d="M754.15,576.92l-6.61,1.54-.14-1a5.84,5.84,0,0,1,6.36-2.18Z" transform="translate(-51.77 -47.02)" opacity="0.1"/>
	<path d="M647.63,569.37l-7.94,3.91-.16-1.71a58.44,58.44,0,0,1,8-3.54Z" transform="translate(-51.77 -47.02)" opacity="0.1"/>
	<path d="M748.15,683.19c-13.41,2.11-32.5,4.87-35.53,3.95-2.51-.77-10.53-.69-17.52-.45.06-3.49.12-5.81.12-5.81l52-5.41A43.08,43.08,0,0,0,748.15,683.19Z" transform="translate(-51.77 -47.02)" opacity="0.1"/>
	<path d="M761.52,680s-44.16,7.58-48.9,6.13-29.07.13-29.07.13c-10.95,7.33-6.37-3.49-6.37-3.49s-1-5.66.36-10.23a62.65,62.65,0,0,0,1.8-10.23s-.24-7.22,1.08-8.9,2.89-13.72,2.89-13.72,1.21-8.18,1.09-10,.36-6.85.36-6.85l1.56-8.43c-9-1.2-36.46-18.05-36.46-18.05-1.32-5.65-11.55-18.89-11.55-18.89a13.93,13.93,0,0,0-.84-3.25c-.72-1.92,10.11-5.77,10.11-5.77s8.06,9.87,9.74,12.51,7.46,7.58,7.46,7.58a5.83,5.83,0,0,1,2.65.35l.14,0h0a21.34,21.34,0,0,1,5.38,3.09,10.43,10.43,0,0,1,7.34,2.77s4.94-.72,5.78.12,5,0,5,0,4.22-8.9,7-6.32,14.51,2.47,14.51,2.47c1.57-2.08,5.37-3.57,7.76-4.34a10.33,10.33,0,0,1,6.27-.1,7.76,7.76,0,0,1,2.48,1.2l7.12,7s2-2.65,1.81-3.25,2.41-1.08,2.41-1.08,3.49-1.08,4.81-1.45,2.54,1.08,2.64,1.2a14.09,14.09,0,0,1-.6-5.29,6,6,0,0,0-1.44-4.33C750.09,570.3,759.6,579,759.6,579s1.08,5.65.12,7.82,1,6.74.72,7.94.48,3.25.48,5.53a32.9,32.9,0,0,1-1.92,8.55c-.73,1.92-6.5,6.25-6.5,6.25s-.36,6.86-2.89,10.83-1,17.57-1,17.57,2.4,10.59,5.41,14S761.52,680,761.52,680Z" transform="translate(-51.77 -47.02)" fill="#3f3d56"/>
	<path d="M697.15,600.87s-1.32-4-2.53-4.34a28.49,28.49,0,0,1-3.49-1.56l.78-1.48s4.52,1.24,5.24,2.56S697.15,600.87,697.15,600.87Z" transform="translate(-51.77 -47.02)" opacity="0.1"/>
	<path d="M673,592.08c-.24,1.21-10.94,2.29-10.94,2.29l5.41-5.43h0l.14.05h0A21.34,21.34,0,0,1,673,592.08Z" transform="translate(-51.77 -47.02)" opacity="0.1"/>
	<circle cx="590.21" cy="528.55" r="0.96" fill="#575988"/>
	<circle cx="591.44" cy="530.48" r="0.96" fill="#575988"/>
	<circle cx="592.65" cy="532.25" r="0.96" fill="#575988"/>
	<circle cx="593.91" cy="534.18" r="0.96" fill="#575988"/>
	<circle cx="707.33" cy="534.07" r="0.78" fill="#575988"/>
	<circle cx="707.45" cy="535.85" r="0.78" fill="#575988"/>
	<circle cx="707.55" cy="537.62" r="0.78" fill="#575988"/>
	<path d="M697.21,633.47c-.11-.14,27,34.11,48.07,14.32C745.28,647.79,712,652.3,697.21,633.47Z" transform="translate(-51.77 -47.02)" opacity="0.1"/>
	<path d="M681.63,651.28s16.23.44,17.93,5.11v4.86a3.11,3.11,0,0,1-3,0c-1.64-.88-11.45-5.87-14.91-3.47Z" transform="translate(-51.77 -47.02)" opacity="0.1"/>
	<path d="M681.93,651.28s15.52.42,17.15,4.87v4.64a3,3,0,0,1-2.89,0c-1.57-.85-11-5.6-14.26-3.31Z" transform="translate(-51.77 -47.02)" fill="#3f3d56"/>
	<path d="M690.49,616a52.28,52.28,0,0,0,6.29,10.79,42.15,42.15,0,0,0,9.86,9.52S690.76,618.27,690.49,616Z" transform="translate(-51.77 -47.02)" opacity="0.1"/>
	<path d="M685.18,597.18s2.71,11.69,9.68,15.66Z" transform="translate(-51.77 -47.02)" opacity="0.1"/>
	<path d="M681,598.36c-.07-.22-2.41,9.24,9,14.48C690,612.84,685.18,611.2,681,598.36Z" transform="translate(-51.77 -47.02)" opacity="0.1"/>
	<path d="M751.9,590.52c-.18,0,5.62,3.7,7.2,5.41C759.1,595.93,755.33,590.28,751.9,590.52Z" transform="translate(-51.77 -47.02)" opacity="0.1"/>
	<path d="M715.18,582.44a3.05,3.05,0,0,0,1.11,1.94,3.13,3.13,0,0,0,1.35.3c4.37.27,8.91.46,13-1.22a4.84,4.84,0,0,0,2-1.31A7.79,7.79,0,0,0,733.7,579c.57-2.14,1.78-4,2.65-6.08A20.43,20.43,0,0,0,737.76,562a7.31,7.31,0,0,0-1.09-3.2c-1.16-1.65-3.27-2.32-4.8-3.64s-2.52-3.33-4.3-4.32a8.36,8.36,0,0,0-5.4-.48,28.53,28.53,0,0,0-10.08,3.79c-1,.64-2.18,1.37-3.37,1.15a4.63,4.63,0,0,1-2.48-1.9,13.32,13.32,0,0,0-1.07,6.23,3,3,0,0,1,0,.94,3,3,0,0,1-.67,1c-1.08,1.25-1.75,3.23-.69,4.49.47.55,1.18.85,1.63,1.41.81,1,.53,2.45.51,3.74a2,2,0,0,0,.32,1.27,1.86,1.86,0,0,0,1.77.42,4.84,4.84,0,0,1,1.88-.18,3.17,3.17,0,0,1,1.64,1.26C713.54,576.54,714.33,579.35,715.18,582.44Z" transform="translate(-51.77 -47.02)" fill="#2d293d"/>
	<g opacity="0.1">
		<path d="M733,581.05a4.73,4.73,0,0,1-2,1.3c-4,1.69-8.58,1.49-12.94,1.22a2.94,2.94,0,0,1-1.35-.3,3,3,0,0,1-1.12-1.93c-.85-3.09-1.63-5.91-3.65-8.47a3.12,3.12,0,0,0-1.64-1.26,4.84,4.84,0,0,0-1.88.18,1.86,1.86,0,0,1-1.77-.42,1.94,1.94,0,0,1-.31-1.27c0-1.29.29-2.74-.52-3.74-.45-.56-1.16-.86-1.63-1.41a2.82,2.82,0,0,1-.27-2.88c-.77,1.22-1.1,2.78-.21,3.84.47.55,1.18.85,1.63,1.41.81,1,.53,2.45.51,3.74a2,2,0,0,0,.32,1.27,1.85,1.85,0,0,0,1.77.42,4.84,4.84,0,0,1,1.88-.18,3.17,3.17,0,0,1,1.64,1.26c2,2.57,2.8,5.38,3.65,8.47a3.05,3.05,0,0,0,1.11,1.94,3.13,3.13,0,0,0,1.35.3c4.37.27,8.91.46,13-1.22a4.91,4.91,0,0,0,2-1.31,3.81,3.81,0,0,0,.62-1.16C733.13,580.92,733.09,581,733,581.05Z" transform="translate(-51.77 -47.02)"/>
		<path d="M705.18,560.19a2,2,0,0,0,.44-.73,3,3,0,0,0,0-.94,13.2,13.2,0,0,1,.67-5.18l-.08-.09a13.2,13.2,0,0,0-1.07,6.23A4.21,4.21,0,0,1,705.18,560.19Z" transform="translate(-51.77 -47.02)"/>
	</g>
	<path d="M712.62,591.12s17.89,2.37,19.5-.32" transform="translate(-51.77 -47.02)" opacity="0.1"/>
	<path d="M747.4,583.72s9.93,0,12.12,3.74" transform="translate(-51.77 -47.02)" opacity="0.1"/>
</svg>