<?xml version="1.0" encoding="utf-8"?>
<svg xmlns="http://www.w3.org/2000/svg" viewBox="0 0 1920 184.834">
  <defs>
    <style>
      .cls-1 {
        fill: url(#MyGradient);
      }

    </style>

    <linearGradient id="MyGradient" gradientTransform="rotate(90)">
          <stop offset="0%" stop-color="#eaeaea" />
          <stop offset="99%" stop-color="#fff" />
        </linearGradient>
  </defs>

  <path id="line2" class="cls-1" d="M-.5,641.334h1920V456.5c-108.85,11.69-249.18,28.9-357,50-6.44,1.26-42.69,8.39-90,18-107.81,21.9-124,26.38-164,34-68,12.94-116,18-212,28-46.12,4.82-112.28,11.65-200,16-73.27,3.64-127.06,3.84-194,4-110,.27-165,.4-236-4-94.16-5.83-119.44-13.3-276-30-82.65-8.81-149.57-14.62-191-18Z" transform="translate(0.5 -456.5)"/>
</svg>
