<?xml version="1.0" encoding="utf-8"?>
<svg xmlns="http://www.w3.org/2000/svg" viewBox="0 0 1920 58.999">
  <defs>
    <style>
      .cls-1 {
        fill: #fff;
      }
    </style>
  </defs>
  <path id="line2" class="cls-1" d="M-.5,515.5h1920v-59c-108.85,3.794-249.18,9.38-357,16.228-6.44.409-42.69,2.723-90,5.842-107.81,7.108-124,8.562-164,11.035-68,4.2-116,5.842-212,9.087-46.12,1.564-112.28,3.781-200,5.193-73.27,1.181-127.06,1.246-194,1.3-110,.088-165,.13-236-1.3-94.16-1.892-119.44-4.317-276-9.737-82.65-2.859-149.57-4.745-191-5.842Z" transform="translate(1919.5 515.499) rotate(180)"/>
</svg>
