<?xml version="1.0" encoding="utf-8"?>
<svg xmlns="http://www.w3.org/2000/svg" viewBox="0 0 1920 517.997">
  <defs>
    <style>
      .cls-1 {
        fill: url(#MyGradient);
      }

    </style>

    <linearGradient id="MyGradient" gradientTransform="rotate(90)">
          <stop offset="0%" stop-color="#eaeaea" />
          <stop offset="99%" stop-color="#fff" />
        </linearGradient>
  </defs>
  <path id="line" class="cls-1" d="M-.5,772.5h1920v-518c-42.24,14.76-78,29.06-106,41-11.83,5-32.25,13.75-58,26-36.66,17.44-63.49,32.24-97,51-43.83,24.54-83.35,46-137,78-57.53,34.31-49.23,31.39-80,49-39.45,22.59-96,54.62-175,82a893.879,893.879,0,0,1-157,39c-38.1,5.84-39.25,3.46-113,10-188.47,16.71-248.64,38.25-268,46-26.6,10.65-57,23-57,23-42.51,17.27-47.91,19.74-60,24-30.37,10.69-54.17,15.49-77,20-29,5.73-77.14,15-140,13-14.59-.45-27.39-1.63-53-4-29.44-2.72-64.11-6.71-111-14-89.48-13.9-93.25-20.6-136-23a439.53,439.53,0,0,0-95,5Z" transform="translate(0.5 -254.5)"/>
</svg>
