<?xml version="1.0" encoding="utf-8"?>
<!-- Generator: Adobe Illustrator 23.0.1, SVG Export Plug-In . SVG Version: 6.00 Build 0)  -->
<svg version="1.1" id="Layer_1" xmlns="http://www.w3.org/2000/svg" xmlns:xlink="http://www.w3.org/1999/xlink" x="0px" y="0px"
	 viewBox="0 0 700 500" style="enable-background:new 0 0 700 500;" xml:space="preserve">
<style type="text/css">
	.st0{opacity:0.1;fill:#003366;}
</style>
<g>
	<path class="st0" d="M114,17.9c-7.7,11,16,16,20.5,5.5c3.6-8.4,6-16.5,0.3-23.5H91.9C98.1,9.3,121.6,7.1,114,17.9z"/>
	<path class="st0" d="M687.4,287.6c3.7,0.2,8-0.5,12.6-1.8v-27.2c-6.1-0.4-13.3-0.8-20.3,0.8C663,263,675.2,287,687.4,287.6z"/>
	<path class="st0" d="M596.6,66.2c15.4,13.1,31.2,1.6,35.9-3.3s15.8-10.6,22.2-3.7c6.4,7,29.9-6.5,16.2-17.6
		c-13.7-11-41-5.7-37.2-14.3s20.9-2.5,29.5-14.7c5-7.1,3-9.8,1.8-12.6h-49c-0.6,3.1-2.1,6.4-4.9,9.8
		C597.4,26.5,581.2,53.1,596.6,66.2z"/>
	<path class="st0" d="M377.2,3.8c15.1,17.8,35.3,16,42.3,19.6c7,3.7,4.8,13.5,13.8,21.5s16.7,13.8,30.1,15.6
		c13.5,1.8,29.8-10.1,44.9-15c15.1-4.9,21.8-4.9,36.9-0.3c15.1,4.6,40.7-0.3,42.3-15.6c0.8-7.3-12.2-8.3-17.9-9.2
		c-5.8-0.9-13.5-14.7-29.2-6.7S510.9,29.3,502.9,30c-8,0.6-8.3,5.5-20.2-1.8c-11.9-7.4-15.7-9.5-26.9-9.5
		c-11.2,0-14.7-3.7-17.9-16.9c-0.1-0.6-0.3-1.1-0.4-1.6h-62.7C375.3,1.2,376.1,2.5,377.2,3.8z"/>
	<path class="st0" d="M654.4,103.2c-8-0.3-9.9,10.1,5.4,13.8c15.4,3.7,24.7-4,34.9-8.3c1.8-0.7,3.5-1.4,5.2-2.1V88.8
		c-1.4,0.5-2.8,1.2-4.3,2.2c-6.7,4.3-16.3,3.3-19.5,3.6C664.9,95.7,673.1,103.9,654.4,103.2z"/>
	<path class="st0" d="M700,404.8c-9.5,2.7-19.5,4-26.5-3.5c-29.1-31.1-62.4-36-63.7-57.7s32-10.6,26.5-27.8
		c-5.6-17.2-12.4-11.4-18.8-20.9c-3.3-4.8,10.7-16,0.4-23.3s-24.4,9.8-35.9,4.1c-11.5-5.7-26.5-19.6-36.7-11.5
		c-10.3,8.2-5.1,22.5-0.4,30.3c4.7,7.8,19.7,9.4,18.8,20.9s-20.5,25.8-29.5,11c-9-14.7-4.7-24.5-11.1-31.9c-6.4-7.4-18.8,0.4-26.5,2
		s-5.1-8.2-16.7-9.8c-11.5-1.6-14.5,6.1-19.7,9c-5.1,2.9-15.4,4.1-14.5,11.9s15.4,5.7,20.1,16.4c4.7,10.6-8.1,16-2.6,25.4
		c5.6,9.4,16.7,9,28.6,5.3c12-3.7,14.1-5.3,18.8-4.1c4.7,1.2,15.8-11,17.5-2.9c1.7,8.2-0.9,22.1,8.5,25.4s21.4-16.4,32-13.9
		c10.7,2.5,26.1,4.1,35.5,19.2s20.5,33.1,41,44.6s33.3,31.5,14.1,35.6s-38.9-11.5-50.4-17.6s-33.8-20-41.9-7
		c-8.1,13.1,20.9,14.3,31.2,30.3c8.2,12.7,20.1,23.4,17.7,35.6h49c-0.9-2-1.4-4.1,1.2-7.8c6.4-9,23.5-7.4,31.2-3.7
		c0.7,0.3,1.6,0.8,2.6,1.4v-85H700z"/>
	<path class="st0" d="M287.9,157c39.1-6.7,22.2,21.9,44,28.1c21.8,6.1,43.5-6.4,33.9-19.3c-9.6-12.9-28.8-13.5-21.2-21.5
		c7.7-8,40.8-12.9,37-24c-3.8-11-15.4-17-33.7-5.5c-5.6,3.5-13.3,10.4-17.9,13.5c-11.6,7.8-23.7,3.9-43,3.3
		c-19.2-0.6-14.1-9.5-27.5-13.1c-13.5-3.7-27.9,12.1-55.9,9.8c-24.8-2-50,11.6-62,20.2c-17.9,12.9-2.5,28.9,14.8,25.8
		c17.3-3.1,49.6-38.2,70.1-32.7s29.5,2.2,18.3,22.2c-17.5,31.4-37.2,38.7-48.7,35s-44.6-12.7-50.6,3.7
		c-6.8,18.3,24.5,13.2,32.7,33.1c2.7,6.4-11.9,21.8-4.5,30.1c16.8,18.7,34.6-27.9,48.9-15.4c16.1,14.2,32,13.9,57.5,4.9
		c24.4-8.6,35.2-43.6,9-39.3c-26.3,4.3-48.1,17.2-49.3-7.4C238.3,184.2,266.8,160.6,287.9,157z"/>
	<path class="st0" d="M640.6,212.8c-9.8,4.1-12.8,11.9-1.3,16.4s41.4-2,56-10.2c1.8-1,3.3-2,4.7-3v-43.4c-3.6-0.4-6.7-0.8-9-1.1
		c-11.5-1.6-28.6-15.1-31.6-25.4c-3-10.2-14.5-22.9-24.4-18.8c-9.8,4.1-10.7,18.8-15.8,23.3s-17.9,0.4-29.9-3.7
		c-12-4.1-20.5-7.4-28.6-19.2c-8.1-11.9-19.2-34-35.9-29.5s-29.1,10.6-17.9,29.9c11.1,19.2,42.7,23.7,44.4,40.1s-1.7,27-33.8,13.9
		c-25.6-10.5-42.7,1.2-41.4,16.4c1.3,15.1,22.6,8.2,31.6,14.7s0.4,35.2,10.3,37.6c9.8,2.5,25.2-4.1,32.5-17.6s14.5-13.9,25.6-11.5
		c11.1,2.5,26.5-3.7,37.6-14.7s23.5-16.4,31.2-9.4C652.6,204.6,650.4,208.7,640.6,212.8z"/>
	<path class="st0" d="M68.1,323.2c-29.5,0.6-24.4,7.4-26.3,18.4c-1.9,11,21.3,5,25.6,6.1c9.6,2.5,17.7,13.8,25,8.6
		c19.9-14.1,13.4-31.9,20.5-35s7.1,1.8,16.7,4.3s21.8,5.5,25.6-4.9s-12.2-19-28.8-22.7c-16.7-3.7-16.7-13.5-36.5-35.6
		C70,240.3,61,244.3,50.1,251.6c-4.9,3.3-11.8,3.9-15.8,0.9c-11.8-8.9,2-17.3,2-20c0-9.3-7.6-11.5-16.4-10.7
		c-5.7,0.5-9.6,10.2-9.6,14.5c0,11.7,7.2,9.5,5.2,18.1c-1.1,4.9-7.3,4.6-15.6,4.1v27.2c10.5-2.9,23-8.8,35.4-13.5
		c17.9-6.8,48.7,9.8,51.3,19C89.3,300.5,97.6,322.6,68.1,323.2z"/>
	<path class="st0" d="M129.4,495.2c-12.2-8-21.1-11.7-18.6-24.5c2.6-12.9,6.4-31.3,32-33.7c25.6-2.5,40.4-12.3,50-12.3
		s36.5-3.1,42.3,9.2c5.8,12.3-3.8,27-12.2,30.7c-8.3,3.7-9,14.7-0.6,17.2c8.3,2.5,23.1-4.9,28.8,1.2c5.8,6.1,28.1,11,32.6-9.2
		s3.3-30,16.7-27.6c13.5,2.5,59.7,24,71.1-10.4c8.3-25.2,5.1-40.5-14.1-41.7c-21.1-1.3-34,28.8-60.9,31.3s-46.8-3.7-57-14.7
		c-10.3-11-20.5-35.6,5.1-33.7c25.6,1.8,28.8-0.6,43.6-14.7c14.7-14.1,16-15.3,29.5-17.8s28.2-22.7,5.8-25.2
		c-22.4-2.5-37.8,14.1-57,24.5s-21.8,14.7-39.7,14.7c-18,0-39.1-4.3-46.1,10.4c-7,14.7-6.4,19,0,20.9c6.4,1.8,17.9,0,13.5,7.4
		c-4.5,7.4-16,11.7-23.1,10.4c-7.1-1.2-23.7,0-30.8,4.9s-25,7.4-31.4,7.4s-13.5,6.7-12.2,19s-8.3,16.6-14.1,27
		c-5.8,10.4,3.2,23.9,9,33.7c0.1,0.2,0.2,0.3,0.3,0.5h42.9C133.5,498.4,131.7,496.8,129.4,495.2z"/>
	<path class="st0" d="M15.4,500h33.5c-1-1.3-1.6-3-1.9-5c-3.9-28.2,24.7-30.6,24.7-47.3c0-16.8-16.7-17.5-22.7-4
		S26.9,481.3,12.8,458s2.5-30,14.1-31.2c11.5-1.2,16.7-30.7-9-27c-4.9,0.6-11.3,3.2-17.9,5v85C3.7,491.9,9.2,495.4,15.4,500z"/>
	<path class="st0" d="M409.3,474.6c-17-4-43,9.2-34.6,25.4h62.7C434,487.7,426.8,478.8,409.3,474.6z"/>
	<path class="st0" d="M47.4,29c17.1,20,27.3,35.6,38.9,26.6c11.5-9,15.3-32.1-2.6-41.9C68.5,5.4,54.1,7.2,48.9,0H15.4
		C25.6,7.5,37.8,17.7,47.4,29z"/>
	<path class="st0" d="M23.1,207.1c13.2,4.1,34.2,10.2,38.5-3.3c4.3-13.5-3-25.4-15.8-26.6c-10.2-1-31.6-3-45.7-4.6V216
		C10,209,11.4,203.5,23.1,207.1z"/>
	<path class="st0" d="M46.1,64.8c-4.5-5.8-11.5,2.8-14.7,10.7c-3.2,8-9,0.6-14.1-8c-5-8.5-8.6-13.9-17.2-15.9v14.7
		c5.7,4.5,9.4,8.5,9,13.3c-0.5,6.7-4.2,7.3-9,9.2v17.8c8.1-3,15.5-4.2,22.4,0.8c8.3,6.1,0.6,13.5,8,27c9.6,17.5,37.5,8.6,28.5-9.8
		c-3.9-8-11.7-3.3-15.4-6.7c-4.8-4.5-10.9-23.4-8-30.4C40.6,75.2,51.5,71.9,46.1,64.8z"/>
	<path class="st0" d="M337,262.3c13.3-4,16.5-3.9,23.8,5.4s19.4,15.5,30.2,4.4c11.6-11.9,1.6-24.2,11.6-30.2s18.9-17.2,12.2-27.9
		c-5.7-9.1-29.1-9.1-37.1-1.1s-10.7,13.3-4,20s9,14.3-0.4,17.7c-9.3,3.3-22.3-3-25-6.3s-26-0.7-28,6
		C318.3,257,323.7,266.3,337,262.3z"/>
	<path class="st0" d="M419.7,82.3C409.4,78,389.6,86,369.1,86s-3.2-16.6-17.3-22.7c-14.1-6.1-23.7-3.1-37.2-8.6s-3.9-9.5,3.1-26.1
		c3.9-9.1-5.5-18.9-37.5-15.8c-18.7,1.8-19.2,26.8-26.8,37.9c-5.5,7.9-21.4,7.3-31.6,4.3c-31.6-9.1-59.2-9.1-65.1,8.7
		c-8.3,24.9,1.6,46.2,21.4,29.6c19.9-16.6,32.7-19.1,41.7-9.9s17.4,9.1,37.9-2c20.5-11,22.3-18.8,33.8-10.8s18.6,4.9,27.6,8.6
		s-1.3,2.5-0.6,11c0.6,8.6,12.8,6.1,30.1,8.6c17.3,2.5,25.6,0.6,47.4-1.8C417.8,94.6,430,86.6,419.7,82.3z"/>
</g>
</svg>
